<svg width="16" height="16" viewBox="0 0 16 16" fill="none" xmlns="http://www.w3.org/2000/svg">
<path d="M3.63592 14.545H2.18137V13.8177H1.4541V12.3632H2.18137V11.6359H2.90865V10.9086H3.63592V10.1814H2.90865V9.4541H2.18137V7.99956H3.63592V8.72683H4.36319V7.99956H5.09047V7.27228H5.81774V6.54501H6.54501V5.81774H7.27228V5.09047H7.99956V4.36319H8.72683V3.63592H9.4541V2.90865H10.1814V2.18137H10.9086V1.4541H14.545V5.09047H13.8177V5.81774H13.0905V6.54501H12.3632V7.27228H11.6359V7.99956H10.9086V8.72683H10.1814V9.4541H9.4541V10.1814H8.72683V10.9086H7.99956V11.6359H7.27228V12.3632H7.99956V13.8177H6.54501V13.0905H5.81774V12.3632H5.09047V13.0905H4.36319V13.8177H3.63592M7.27228 9.4541V8.72683H7.99956V7.99956H8.72683V7.27228H9.4541V6.54501H10.1814V5.81774H10.9086V5.09047H11.6359V4.36319H12.3632V3.63592H13.0905V2.90865H11.6359V3.63592H10.9086V4.36319H10.1814V5.09047H9.4541V5.81774H8.72683V6.54501H7.99956V7.27228H7.27228V7.99956H6.54501V8.72683H5.81774V9.4541H7.27228Z" fill="white"/>
</svg>
